<!DOCTYPE svg PUBLIC "-//W3C//DTD SVG 1.1//EN" "http://www.w3.org/Graphics/SVG/1.1/DTD/svg11.dtd">
<!-- Uploaded to: SVG Repo, www.svgrepo.com, Transformed by: SVG Repo Mixer Tools -->
<svg fill="#F9FBFF" version="1.1" id="Capa_1" xmlns="http://www.w3.org/2000/svg" xmlns:xlink="http://www.w3.org/1999/xlink" width="800px" height="800px" viewBox="0 0 302.385 302.386" xml:space="preserve">
<g id="SVGRepo_bgCarrier" stroke-width="0"/>
<g id="SVGRepo_tracerCarrier" stroke-linecap="round" stroke-linejoin="round"/>
<g id="SVGRepo_iconCarrier"> <g> <g> <path d="M97.227,50.357c-2.257,0-5.472,0.527-7.987,3.042c-5.112,5.117-3.693,14.853,3.155,21.7 c3.934,3.935,8.927,6.187,13.717,6.187c2.251,0,5.468-0.525,7.977-3.037c5.113-5.119,3.711-14.853-3.145-21.707 C107.01,52.609,102.017,50.357,97.227,50.357z"/> <path d="M213.3,198.07c-3.507,0-6.804,1.365-9.287,3.843c-2.478,2.478-3.843,5.773-3.843,9.274c0,3.508,1.365,6.799,3.843,9.276 c4.961,4.956,13.596,4.956,18.553,0c2.478-2.478,3.841-5.769,3.847-9.276c0-3.501-1.364-6.797-3.842-9.274 S216.811,198.07,213.3,198.07z"/> <path d="M153.627,231.572c-3.507,0-6.801,1.364-9.278,3.842c-5.113,5.113-5.113,13.438,0,18.552 c4.955,4.955,13.601,4.955,18.556,0c5.113-5.113,5.113-13.434,0-18.552C160.427,232.937,157.131,231.572,153.627,231.572z"/> <path d="M94.4,198.512c-3.506,0-6.795,1.363-9.272,3.843c-2.483,2.478-3.85,5.773-3.85,9.274c0,3.502,1.367,6.799,3.85,9.275 c4.955,4.955,13.588,4.955,18.543,0c2.48-2.477,3.845-5.773,3.85-9.275c0-3.501-1.365-6.797-3.845-9.274 C101.199,199.865,97.905,198.512,94.4,198.512z"/> <path d="M59.539,137.492c-3.503,0-6.792,1.359-9.27,3.838c-2.486,2.491-3.851,5.779-3.851,9.283c0,3.494,1.365,6.794,3.851,9.272 c4.955,4.963,13.587,4.963,18.543,0c5.118-5.111,5.118-13.433,0.005-18.55C66.34,138.856,63.046,137.492,59.539,137.492z"/> <path d="M246.985,138.211c-3.496,0-6.791,1.367-9.276,3.845c-2.478,2.489-3.841,5.772-3.841,9.284c0,3.507,1.363,6.798,3.841,9.28 c4.963,4.957,13.598,4.946,18.553,0c5.113-5.113,5.113-13.436,0.01-18.559C253.799,139.578,250.491,138.211,246.985,138.211z"/> <path d="M302.052,136.148c-0.693-15.905-7.219-30.791-18.474-42.04c-11.973-11.977-27.89-18.573-44.818-18.573 c-16.945,0-32.852,6.596-44.836,18.573c-4.246,4.247-9.895,6.585-15.896,6.585c-5.999,0-11.652-2.338-15.9-6.585 c-4.562-4.56-6.944-10.864-6.545-17.299c0.025-0.452-0.006-0.898-0.108-1.334c0.06-0.766,0.103-1.535,0.103-2.304 c0.011-0.163,0.011-0.323,0.011-0.485c-0.005-0.176-0.016-0.35-0.036-0.521c-0.589-16.1-7.14-31.179-18.482-42.504 c-11.955-11.955-27.851-18.533-44.751-18.533c-13.196,0-25.85,4.01-36.585,11.599c-3.187,2.251-5.905,4.521-8.31,6.929 c-0.887,0.887-1.692,1.806-2.503,2.737l-0.286,0.326c-0.149,0.121-0.299,0.255-0.436,0.394 c-58.935,58.962-58.935,154.89,0.029,213.86c28.56,28.558,66.532,44.285,106.925,44.285c40.399,0,78.368-15.728,106.942-44.285 c29.182-29.187,44.903-67.979,44.272-109.239C302.356,137.198,302.242,136.67,302.052,136.148z M42.663,167.481 c-4.512-4.504-7.001-10.498-7.001-16.874c0-6.381,2.489-12.368,7.001-16.884c4.503-4.504,10.496-6.988,16.871-6.988 s12.37,2.479,16.879,6.988c9.31,9.307,9.31,24.451,0,33.758c-4.509,4.51-10.504,6.993-16.879,6.993S47.166,171.991,42.663,167.481 z M111.272,228.495c-4.51,4.515-10.502,6.992-16.877,6.992s-12.37-2.478-16.874-6.992c-4.51-4.508-7-10.499-7-16.877 s2.49-12.372,7-16.888c4.503-4.503,10.498-6.98,16.874-6.98s12.368,2.478,16.877,6.98c4.512,4.521,6.995,10.499,6.995,16.888 C118.267,217.996,115.784,223.987,111.272,228.495z M121.695,85.846c-3.987,3.987-9.52,6.187-15.577,6.187 c-7.617,0-15.383-3.402-21.318-9.337C73.752,71.66,72.346,55.102,81.644,45.793c3.993-3.987,9.531-6.187,15.588-6.187 c7.618,0,15.384,3.407,21.318,9.336C129.592,59.984,131,76.541,121.695,85.846z M170.506,261.567 c-4.515,4.509-10.509,6.991-16.887,6.991c-6.374,0-12.368-2.482-16.877-6.991c-9.294-9.303-9.294-24.447,0-33.744 c4.509-4.52,10.503-7.002,16.877-7.002c6.378,0,12.383,2.482,16.887,7.002C179.808,237.12,179.808,252.265,170.506,261.567z M230.172,228.064c-4.511,4.505-10.505,6.993-16.883,6.993s-12.368-2.488-16.872-6.993c-4.519-4.503-7.002-10.497-7.002-16.881 c0-6.383,2.483-12.373,7.002-16.882c4.504-4.516,10.494-6.993,16.872-6.993s12.372,2.478,16.883,6.993 c4.508,4.514,6.991,10.499,6.991,16.882C237.164,217.567,234.68,223.562,230.172,228.064z M263.868,168.206 c-4.514,4.521-10.51,6.998-16.888,6.998c-6.373,0-12.367-2.478-16.872-6.993c-4.514-4.509-7.002-10.497-7.002-16.876 c0-6.375,2.488-12.381,7.002-16.88c4.505-4.503,10.499-6.986,16.872-6.986c6.378,0,12.374,2.482,16.888,6.98 C273.165,143.759,273.165,158.898,263.868,168.206z"/> </g> </g> </g>
</svg>